<svg width="1440" height="544" viewBox="0 0 1440 544" fill="none" xmlns="http://www.w3.org/2000/svg">
<g clip-path="url(#clip0_212_16580)" filter="url(#filter0_f_212_16580)">
<path opacity="0.15" d="M1367.19 268.88C1400.7 305.97 1427.88 370.451 1377.8 415.973C1372.63 420.666 1324.18 463.248 1251.3 457.96C1162.54 451.52 1144.34 381.812 1046.38 363.716C940.298 344.119 878.037 410.425 826.231 390.056C764.971 365.97 757.451 236.071 868.331 180.396C1001.91 113.326 1277.08 169.151 1367.19 268.88Z" fill="#EBC136"/>
<path opacity="0.15" d="M532.245 460.639C563.307 441.569 597.155 403.149 576.134 364.285C573.966 360.279 553.262 323.654 504.679 314.834C445.505 304.09 416.162 347.52 348.092 342.996C274.375 338.096 250.688 283.301 211.971 288.114C166.189 293.806 128.627 379.21 186.513 435.149C256.248 502.538 448.723 511.917 532.245 460.639Z" fill="#EBC136"/>
<path opacity="0.15" d="M714.575 352.89C699.187 331.799 683.464 291.221 696.947 253.859C698.337 250.007 711.519 214.857 737.877 209.297C769.983 202.526 783.013 247.799 819.481 247.823C858.973 247.849 874.817 194.774 895.122 202.155C919.131 210.883 934.044 298.57 899.944 350.508C858.865 413.075 755.953 409.602 714.575 352.89Z" fill="#EBC136"/>
<path opacity="0.15" d="M702.467 305.802C719.285 295.124 737.622 273.633 726.277 251.936C725.107 249.699 713.931 229.254 687.654 224.363C655.649 218.407 639.745 242.693 602.923 240.218C563.047 237.538 550.27 206.943 529.322 209.661C504.55 212.876 484.171 260.62 515.448 291.828C553.128 329.423 657.247 334.514 702.467 305.802Z" fill="#EBC136"/>
<path opacity="0.15" d="M1426.62 279.365C1444.76 263.046 1464.7 230.494 1452.95 198.192C1451.74 194.861 1440.14 164.43 1412.17 157.595C1378.09 149.269 1360.7 185.965 1321.42 182.946C1278.89 179.678 1265.75 134.066 1243.34 138.534C1216.83 143.818 1194.28 215.751 1227.15 261.934C1266.76 317.569 1377.86 323.244 1426.62 279.365Z" fill="#8047F8"/>
<path opacity="0.15" d="M1438.61 408.852C1452.71 419.804 1468.15 441.725 1458.84 463.622C1457.88 465.88 1448.7 486.511 1426.82 491.261C1400.16 497.047 1386.73 472.312 1356.03 474.533C1322.79 476.938 1312.35 507.841 1294.86 504.922C1274.17 501.471 1256.84 452.932 1282.71 421.552C1313.88 383.749 1400.69 379.404 1438.61 408.852Z" fill="#8047F8"/>
<path opacity="0.15" d="M239.937 167.891C252.507 189.616 264.932 231.056 252.695 268.491C251.433 272.351 239.5 307.558 217.055 312.502C189.717 318.524 179.675 272.405 148.792 271.442C115.347 270.4 100.765 323.665 83.7319 315.678C63.5904 306.234 52.883 217.175 82.8998 165.53C119.06 103.315 206.139 109.476 239.937 167.891Z" fill="#EBC136"/>
<path opacity="0.15" d="M881.507 463.947C855.621 444.727 830.462 406.18 856.926 367.528C859.654 363.543 885.434 327.123 932.6 318.62C990.048 308.262 1010.11 351.78 1074.84 347.683C1144.94 343.246 1176.66 288.712 1212.2 293.753C1254.23 299.713 1274.76 385.166 1210.71 440.631C1133.55 507.449 951.112 515.627 881.507 463.947Z" fill="#EBC136"/>
<path opacity="0.15" d="M807.922 430.538C829.564 411.513 852.249 374.904 834.967 341.187C833.185 337.71 816.248 305.989 780.43 300.962C736.805 294.84 717.654 335.687 667.868 335.695C613.953 335.704 593.92 287.808 565.979 294.46C532.939 302.327 509.942 381.444 554.931 428.321C609.129 484.792 749.728 481.695 807.922 430.538Z" fill="#8047F8"/>
<path opacity="0.15" d="M855.472 172.004C896.019 182.666 939.079 202.465 908.336 219.257C905.167 220.989 874.993 236.762 809.11 238.009C728.863 239.528 692.181 217.67 600.369 215.784C500.942 213.742 465.601 237.767 413.852 233.269C352.659 227.95 307.602 186.145 389 163.591C487.058 136.42 746.443 143.335 855.472 172.004Z" fill="#8047F8"/>
<path opacity="0.15" d="M188.139 413.866C207.225 391.714 227.35 349.381 212.454 310.978C210.918 307.018 196.31 270.899 164.98 265.685C126.82 259.335 109.761 306.475 66.1632 307.25C18.9491 308.089 1.74424 253.467 -22.7709 261.526C-51.7595 271.056 -72.4579 362.145 -33.3915 415.214C13.6708 479.144 136.816 473.431 188.139 413.866Z" fill="#8047F8"/>
</g>
<defs>
<filter id="filter0_f_212_16580" x="-167" y="-129" width="1760" height="864" filterUnits="userSpaceOnUse" color-interpolation-filters="sRGB">
<feFlood flood-opacity="0" result="BackgroundImageFix"/>
<feBlend mode="normal" in="SourceGraphic" in2="BackgroundImageFix" result="shape"/>
<feGaussianBlur stdDeviation="80" result="effect1_foregroundBlur_212_16580"/>
</filter>
<clipPath id="clip0_212_16580">
<rect width="1440" height="544" fill="white" transform="translate(-7 31)"/>
</clipPath>
</defs>
</svg>
